<?xml version="1.0" standalone="no"?>
<!DOCTYPE svg PUBLIC "-//W3C//DTD SVG 20010904//EN"
 "http://www.w3.org/TR/2001/REC-SVG-20010904/DTD/svg10.dtd">
<svg version="1.0" xmlns="http://www.w3.org/2000/svg"
 width="346.000000pt" height="346.000000pt" viewBox="0 0 346.000000 346.000000"
 preserveAspectRatio="xMidYMid meet">
<metadata>
Created by potrace 1.11, written by Peter Selinger 2001-2013
</metadata>
<g transform="translate(0.000000,346.000000) scale(0.100000,-0.100000)"
fill="#000000" stroke="none">
<path d="M992 3259 c-157 -30 -305 -159 -365 -316 -22 -58 -22 -61 -25 -797
-2 -512 1 -756 8 -793 26 -125 124 -258 240 -326 51 -29 147 -57 199 -57 50 0
33 -9 -38 -21 -58 -9 -171 -51 -171 -64 0 -3 14 2 30 10 17 9 35 13 40 10 6
-3 10 -3 10 2 0 4 16 9 36 11 26 1 33 -1 28 -10 -6 -10 -4 -10 7 -2 20 15 635
26 854 15 44 -2 196 -1 338 3 162 4 256 3 253 -3 -3 -5 3 -7 14 -4 11 3 17 9
14 14 -5 9 21 7 91 -6 22 -4 37 -5 34 -1 -4 4 -47 15 -95 25 l-89 17 75 7
c217 21 394 200 420 428 13 108 12 1340 0 1439 -26 203 -187 377 -388 419 -64
13 -1453 14 -1520 0z m1520 -33 c78 -17 115 -34 184 -87 45 -34 138 -145 104
-124 -10 6 -12 4 -7 -11 7 -18 6 -18 -9 1 -8 11 -20 19 -25 17 -5 -1 -4 8 2
20 11 20 10 21 -3 10 -12 -10 -183 -12 -824 -11 -445 1 -899 1 -1009 0 -192
-2 -201 -3 -218 -24 -25 -29 -10 -1 20 41 14 19 29 30 36 26 7 -4 9 -4 5 1
-11 11 12 36 25 28 5 -3 7 -1 3 5 -13 21 122 95 206 111 24 5 358 9 743 10
568 0 713 -2 767 -13z m-440 -376 c2 -5 1 -39 0 -75 -3 -56 -6 -65 -23 -65
-17 0 -19 8 -19 75 0 67 2 75 19 75 11 0 21 -4 23 -10z m-244 -153 c43 -44 50
-56 39 -65 -20 -17 -124 83 -107 104 7 7 13 14 14 14 1 0 25 -24 54 -53z m520
40 c16 -19 -92 -127 -110 -109 -9 9 0 24 38 66 55 60 57 61 72 43z m-179 -121
c49 -34 91 -113 91 -170 0 -23 -9 -59 -19 -81 -18 -40 -66 -95 -82 -95 -22 0
-6 -17 26 -29 89 -32 144 -119 119 -186 -53 -138 -1205 -138 -1258 0 -17 45 8
106 54 130 16 8 55 15 88 15 l60 0 6 45 c9 57 61 135 106 157 19 10 51 18 71
18 44 0 122 -48 148 -90 l19 -31 6 28 c4 15 18 45 32 66 13 20 20 37 14 37 -5
0 -10 7 -10 15 0 10 10 15 27 15 15 0 46 9 70 21 24 12 61 23 82 26 32 4 42
11 52 34 13 33 59 75 104 96 50 23 145 12 194 -21z m301 -171 c0 -12 -15 -15
-75 -15 -60 0 -75 3 -75 15 0 12 15 15 75 15 60 0 75 -3 75 -15z m-124 -291
c-6 -15 -15 -9 -61 36 -43 43 -52 57 -43 67 16 20 114 -77 104 -103z m-346
-534 c0 -33 2 -60 5 -60 3 0 17 7 30 16 31 20 69 12 90 -19 18 -27 31 -133 21
-172 -5 -20 -12 -26 -29 -23 -20 3 -22 9 -25 78 -3 78 -13 100 -43 100 -32 0
-49 -39 -49 -112 0 -66 -1 -68 -25 -68 l-25 0 0 160 0 160 25 0 c24 0 25 -3
25 -60z m-985 20 c3 -11 14 -61 24 -112 11 -56 20 -85 23 -73 4 11 16 62 28
113 22 89 23 92 51 92 31 0 37 -12 60 -143 7 -37 16 -64 19 -60 4 5 12 35 19
68 22 117 30 135 56 135 14 0 25 -6 25 -12 -1 -7 -17 -74 -38 -148 -37 -134
-37 -135 -66 -135 -29 0 -30 2 -48 85 -10 47 -21 96 -24 110 -5 19 -13 -3 -33
-85 -26 -109 -27 -110 -56 -110 l-29 0 -37 148 -37 147 29 0 c19 0 30 -6 34
-20z m845 -35 c0 -20 5 -25 25 -25 18 0 25 -5 25 -20 0 -15 -7 -20 -25 -20
-24 0 -25 -2 -25 -64 0 -59 2 -65 23 -68 36 -5 29 -42 -8 -46 -54 -5 -69 16
-73 102 -3 56 -8 76 -18 76 -8 0 -14 9 -14 20 0 11 7 20 15 20 8 0 15 8 15 18
0 25 9 32 37 32 18 0 23 -5 23 -25z m-392 -26 c32 -11 62 -59 62 -98 0 -19 -5
-21 -75 -21 -41 0 -75 -4 -75 -8 0 -5 6 -17 14 -28 11 -15 26 -19 65 -18 42 0
51 -3 51 -17 0 -30 -74 -40 -125 -17 -72 33 -74 155 -3 198 38 23 44 24 86 9z
m250 -24 c19 -23 22 -37 22 -111 0 -74 -2 -84 -18 -84 -10 0 -22 4 -28 10 -6
6 -21 6 -42 -2 -46 -18 -86 5 -90 51 -4 43 19 68 75 83 46 11 52 18 28 38 -12
10 -24 11 -50 3 -28 -9 -35 -8 -40 5 -7 18 -6 18 25 31 39 16 92 5 118 -24z
m640 2 c12 -13 25 -40 29 -60 l6 -37 -77 0 c-42 0 -76 -4 -76 -8 0 -5 6 -17
14 -28 11 -15 26 -19 65 -18 42 0 51 -3 51 -17 0 -30 -74 -40 -125 -17 -72 33
-74 154 -3 198 40 25 83 20 116 -13z m192 3 c0 -23 -5 -30 -19 -30 -30 0 -40
-21 -43 -95 -3 -67 -4 -70 -28 -70 -25 0 -25 0 -28 108 l-3 107 26 0 c17 0 25
-5 25 -17 0 -15 1 -15 13 -1 11 14 31 25 50 27 4 1 7 -12 7 -29z m-227 -597
c-46 -2 -120 -2 -165 0 -46 1 -9 3 82 3 91 0 128 -2 83 -3z"/>
<path d="M2770 3041 c0 -6 4 -13 10 -16 6 -3 7 1 4 9 -7 18 -14 21 -14 7z"/>
<path d="M1403 1538 c-27 -35 -25 -38 28 -38 51 0 51 0 37 23 -18 26 -50 34
-65 15z"/>
<path d="M1628 1459 c-20 -11 -24 -44 -7 -54 5 -4 21 -4 35 -1 19 5 24 13 24
36 0 32 -19 39 -52 19z"/>
<path d="M2263 1538 c-27 -35 -25 -38 28 -38 51 0 51 0 37 23 -18 26 -50 34
-65 15z"/>
<path d="M1618 913 c12 -2 32 -2 45 0 12 2 2 4 -23 4 -25 0 -35 -2 -22 -4z"/>
</g>
</svg>
